<svg xmlns="http://www.w3.org/2000/svg" viewBox="0 0 120 120" width="120" height="120">
  <defs>
    <linearGradient id="bg6" x1="0" y1="0" x2="1" y2="1">
      <stop offset="0" stop-color="#111a33"/><stop offset="1" stop-color="#0a0f1f"/>
    </linearGradient>
    <linearGradient id="api6" x1="0" y1="0" x2="1" y2="1">
      <stop offset="0" stop-color="#ff4b1f"/><stop offset="1" stop-color="#ffc531"/>
    </linearGradient>
  </defs>
  <rect x="0" y="0" width="120" height="120" rx="27" fill="url(#bg6)"/>
    <rect x="26" y="26" width="20" height="20" rx="6"
      fill="#ff4b1f"
      fill-opacity="1"/>
  <rect x="50" y="26" width="20" height="20" rx="6"
      fill="#9aabcd"
      fill-opacity="0.22"/>
  <rect x="74" y="26" width="20" height="20" rx="6"
      fill="#ff4b1f"
      fill-opacity="1"/>
  <rect x="26" y="50" width="20" height="20" rx="6"
      fill="#9aabcd"
      fill-opacity="0.22"/>
  <rect x="50" y="50" width="20" height="20" rx="6"
      fill="#ffc531"
      fill-opacity="1"/>
  <rect x="74" y="50" width="20" height="20" rx="6"
      fill="#9aabcd"
      fill-opacity="0.22"/>
  <rect x="26" y="74" width="20" height="20" rx="6"
      fill="#9aabcd"
      fill-opacity="0.22"/>
  <rect x="50" y="74" width="20" height="20" rx="6"
      fill="#9aabcd"
      fill-opacity="0.22"/>
  <rect x="74" y="74" width="20" height="20" rx="6"
      fill="#ff4b1f"
      fill-opacity="1"/></svg>